<svg xmlns="http://www.w3.org/2000/svg" viewBox="0 0 1242 641">
  <defs>
    <linearGradient id="bg" x1="0%" y1="0%" x2="100%" y2="100%">
      <stop offset="0%" stop-color="#4f46e5"/>
      <stop offset="100%" stop-color="#2563eb"/>
    </linearGradient>
  </defs>
  <rect width="1242" height="641" rx="130" ry="130" fill="url(#bg)"/>
  <path d="M0 0 C0 0.66 0 1.32 0 2 C0.54011719 2.2165625 1.08023437 2.433125 1.63671875 2.65625 C19.94576132 13.06668081 29.67433186 36.3929178 35.33886719 55.58984375 C52.2048656 117.07475377 34.92730932 182.55168351 4.24462891 236.83642578 C-2.92254249 249.29532592 -10.68614268 261.27877909 -19 273 C-19.52916016 273.74846191 -20.05832031 274.49692383 -20.60351562 275.26806641 C-27.10229733 284.43776339 -33.69184911 293.45153066 -41 302 C-41.68666748 302.81186768 -41.68666748 302.81186768 -42.38720703 303.64013672 C-56.81892661 320.68893408 -72.04526919 338.62408926 -89.609375 352.53515625 C-91.39875181 354.42003351 -91.93303875 355.38372817 -92 358 C-90.4444811 360.57875916 -90.4444811 360.57875916 -88.125 363.125 C-87.29484375 364.09179688 -86.4646875 365.05859375 -85.609375 366.0546875 C-84.74828125 367.02664063 -83.8871875 367.99859375 -83 369 C-82.22140625 369.88945312 -81.4428125 370.77890625 -80.640625 371.6953125 C-55.95038449 399.53568714 -23.99006402 418.90222631 11 431 C11.76957031 431.27150879 12.53914063 431.54301758 13.33203125 431.82275391 C31.9094036 438.31601078 51.25899148 442.29829577 70.6875 445.25 C71.66912109 445.40098145 72.65074219 445.55196289 73.66210938 445.70751953 C94.54806453 448.68595076 115.43040457 449.37236318 136.5 449.3125 C138.40306412 449.31076279 138.40306412 449.31076279 140.34457397 449.30899048 C159.75684286 449.27401507 178.74765492 448.55845117 198 446 C199.88647345 445.77914457 201.77318173 445.56028258 203.66015625 445.34375 C252.40085965 439.43347412 302.90414806 421.17515523 339 387 C340.36965259 385.80633629 341.74445266 384.61854628 343.125 383.4375 C351.74140092 375.89167394 359.62966682 367.55549977 366 358 C365.68896679 354.61803226 364.40306242 353.07870745 361.9296875 350.85546875 C361.28765381 350.26838135 360.64562012 349.68129395 359.98413086 349.07641602 C359.28811768 348.45307373 358.59210449 347.82973145 357.875 347.1875 C356.4134605 345.84842943 354.95387442 344.50722414 353.49609375 343.1640625 C352.74956543 342.47731445 352.00303711 341.79056641 351.23388672 341.08300781 C343.3498677 333.73148319 335.55479824 326.11460812 328.59375 317.875 C326.65674129 315.59616622 324.64094375 313.39675343 322.625 311.1875 C309.14150279 296.20331002 297.36700562 279.96792055 286.37109375 263.1015625 C285.10889687 261.16691315 283.83703832 259.23902986 282.5625 257.3125 C276.95069353 248.77602825 271.83556106 239.99792754 267 231 C266.66645508 230.37963867 266.33291016 229.75927734 265.98925781 229.12011719 C245.42086148 190.41878638 232.82062904 147.92013998 232.6875 104 C232.68373352 103.31929443 232.67996704 102.63858887 232.67608643 101.93725586 C232.63168943 86.15865771 234.62038607 71.16428067 239 56 C239.20608887 55.27522461 239.41217773 54.55044922 239.62451172 53.80371094 C244.34378079 37.54570544 251.52105459 23.5721783 263 11 C263.75796875 10.14921875 264.5159375 9.2984375 265.296875 8.421875 C281.73838802 -9.09424671 305.68195159 -18.21308868 329.453125 -19.23828125 C359.67687574 -19.93684165 385.04894768 -9.86936871 407 11 C413.8340257 17.73430536 419.78387995 24.93776171 425 33 C425.42361816 33.63196289 425.84723633 34.26392578 426.28369141 34.91503906 C449.67268321 69.81799425 462.36670334 109.75596528 469 151 C469.19754883 152.20930176 469.39509766 153.41860352 469.59863281 154.66455078 C472.50420938 173.20840647 473.3712617 191.54817839 473.375 210.3125 C473.37690338 211.33691193 473.37880676 212.36132385 473.38076782 213.41677856 C473.37208014 254.63402185 466.99293603 297.35798074 449.53125 335.02734375 C448.76976558 337.85491458 448.91957295 339.25479042 450 342 C452.16528851 343.86122672 454.17775918 345.3458665 456.5625 346.875 C457.26576416 347.33986816 457.96902832 347.80473633 458.69360352 348.28369141 C461.11776937 349.87387784 463.55830858 351.43687405 466 353 C466.89299805 353.58136719 467.78599609 354.16273438 468.70605469 354.76171875 C482.81026865 363.93312443 497.24903164 372.09496343 512.28515625 379.63525391 C514.61582838 380.80687776 516.93541984 381.99624617 519.25 383.19921875 C580.02903079 414.6019778 647.70890054 430.57286937 715.76855469 434.26806641 C716.55249603 434.3107515 717.33643738 434.35343658 718.14413452 434.39741516 C719.66279469 434.47746204 721.18170221 434.55297355 722.70083618 434.62345886 C727.89145066 434.89145066 727.89145066 434.89145066 729 436 C729.09905152 437.83572631 729.12799207 439.67527575 729.12939453 441.51367188 C729.13412277 443.28055359 729.13412277 443.28055359 729.13894653 445.08312988 C729.1369223 446.36538452 729.13489807 447.64763916 729.1328125 448.96875 C729.13376923 450.27453003 729.13472595 451.58031006 729.13571167 452.92565918 C729.13718833 455.69312722 729.13503511 458.46056304 729.13037109 461.22802734 C729.12467381 464.78262649 729.12795298 468.33715014 729.13394356 471.89174652 C729.13841747 475.27158714 729.13528886 478.65140723 729.1328125 482.03125 C729.13584885 483.95463196 729.13584885 483.95463196 729.13894653 485.91687012 C729.13579437 487.09479126 729.13264221 488.2727124 729.12939453 489.48632812 C729.12820114 491.05066589 729.12820114 491.05066589 729.12698364 492.64660645 C729 495 729 495 728 496 C657.45360643 499.85742636 576.62507684 480.09903529 513 450 C511.5159668 449.30438965 511.5159668 449.30438965 510.00195312 448.59472656 C502.63359636 445.13257023 495.31048646 441.58244311 488 438 C486.93442871 437.48083008 485.86885742 436.96166016 484.77099609 436.42675781 C462.76347216 425.68764539 462.76347216 425.68764539 452.88720703 419.22412109 C450.49972766 417.67550252 448.09175616 416.16078166 445.68359375 414.64453125 C443.72630584 413.40926075 441.76927636 412.17358068 439.8125 410.9375 C438.89710449 410.3595166 437.98170898 409.7815332 437.03857422 409.18603516 C431.59031049 405.72128148 426.29685437 402.12120864 421.1003418 398.28735352 C418.98428301 396.738712 418.98428301 396.738712 416 397 C413.93751238 398.84362576 413.93751238 398.84362576 411.875 401.3125 C410.66650391 402.69501953 410.66650391 402.69501953 409.43359375 404.10546875 C407.21664298 406.74232352 405.07380602 409.4228394 402.9375 412.125 C393.62236342 423.60986192 382.75019565 434.0436688 371 443 C369.81238918 443.92824365 368.62489715 444.85663929 367.4375 445.78515625 C292.78224389 503.55691161 197.74305486 515.26194834 66.125 508.1875 C2.62350227 499.7550088 -57.42525774 477.48801751 -106 435 C-106.5053125 434.55930176 -107.010625 434.11860352 -107.53125 433.66455078 C-120.4517507 422.32125964 -131.62297814 409.68352782 -142 396 C-145.2847593 397.55457116 -148.28254625 399.40512015 -151.33203125 401.37890625 C-152.36996826 402.04825195 -153.40790527 402.71759766 -154.47729492 403.40722656 C-155.5779126 404.1184668 -156.67853027 404.82970703 -157.8125 405.5625 C-180.02954708 419.8472349 -202.68565865 432.80655806 -226.67529297 443.91992188 C-228.75934418 444.88818931 -230.83625871 445.86959702 -232.91015625 446.859375 C-235.94019778 448.29691375 -238.97769893 449.71090254 -242.02978516 451.10058594 C-243.38866855 451.72092378 -244.74497496 452.34692716 -246.09912109 452.97753906 C-283.08220745 470.10159265 -323.21104935 479.97092083 -363 488 C-364.09602539 488.22316895 -365.19205078 488.44633789 -366.32128906 488.67626953 C-394.85981485 494.35039995 -424.92575586 497.02414167 -454 496 C-455.31538313 493.36923375 -455.12710325 491.41053669 -455.12939453 488.46459961 C-455.13254669 487.30677475 -455.13569885 486.14894989 -455.13894653 484.95603943 C-455.1369223 483.70081985 -455.13489807 482.44560028 -455.1328125 481.15234375 C-455.13376923 479.87017471 -455.13472595 478.58800568 -455.13571167 477.26698303 C-455.13718671 474.55256955 -455.13503994 471.83818896 -455.13037109 469.1237793 C-455.12466822 465.63758959 -455.12795754 462.15147677 -455.13394356 458.66528988 C-455.13841655 455.34846826 -455.13528929 452.03166756 -455.1328125 448.71484375 C-455.13483673 447.45759995 -455.13686096 446.20035614 -455.13894653 444.90501404 C-455.13579437 443.75034134 -455.13264221 442.59566864 -455.12939453 441.40600586 C-455.12859894 440.38389511 -455.12780334 439.36178436 -455.12698364 438.30870056 C-455 436 -455 436 -454 435 C-451.89345458 434.80522126 -449.78090387 434.67508614 -447.66796875 434.5703125 C-446.3128085 434.49861195 -444.957666 434.42657539 -443.60253906 434.35424805 C-442.52413757 434.29882339 -442.52413757 434.29882339 -441.4239502 434.24227905 C-380.95376822 431.0712334 -320.06171359 418.96940522 -265 393 C-263.51886719 392.32710938 -263.51886719 392.32710938 -262.0078125 391.640625 C-230.994636 377.53683324 -201.62716454 360.96963524 -174 341 C-175.69314427 335.78961846 -177.48942156 330.63936463 -179.44775391 325.52294922 C-189.70516884 298.56175976 -195.24952947 270.67193182 -198 242 C-198.09643799 241.00959717 -198.19287598 240.01919434 -198.29223633 238.9987793 C-199.10134055 229.76865092 -199.20243455 220.57085371 -199.1875 211.3125 C-199.18559662 210.0920549 -199.18559662 210.0920549 -199.18365479 208.84695435 C-198.97851116 139.42957417 -182.3933967 63.54093569 -133 12 C-97.70141595 -22.94441766 -40.92801869 -30.28673383 0 0 Z M-95 61 C-104.45087581 72.81958391 -110.89869564 86.24297585 -117 100 C-117.50144531 101.08667969 -118.00289063 102.17335937 -118.51953125 103.29296875 C-132.78032213 135.39106631 -137.24241113 173.08676493 -137.1875 207.875 C-137.18689575 208.59032898 -137.1862915 209.30565796 -137.18566895 210.04266357 C-137.12132159 238.34059135 -135.67764145 271.75209031 -124 298 C-117.55201904 295.27200805 -113.20953625 290.23541239 -108.77734375 285.02734375 C-107.13119489 283.14964868 -105.42264884 281.41872302 -103.625 279.6875 C-99.83493676 275.96526787 -96.5671222 271.87485826 -93.2421875 267.73828125 C-91.28928101 265.3532857 -89.27558218 263.07819913 -87.1875 260.8125 C-54.16715829 223.93433618 -28.78691148 174.97428604 -21 126 C-20.74065674 124.59572754 -20.74065674 124.59572754 -20.47607422 123.16308594 C-17.97631397 106.55442248 -18.96356092 88.00118665 -24 72 C-24.28875 71.03707031 -24.5775 70.07414062 -24.875 69.08203125 C-28.26010508 59.33474206 -34.31119479 50.95867597 -43.48828125 46.08203125 C-62.66794476 37.81956345 -81.9435101 46.0942544 -95 61 Z M311 51 C308.15310372 53.68291796 308.15310372 53.68291796 306 57 C305.52046875 57.63808594 305.0409375 58.27617188 304.546875 58.93359375 C297.50614557 69.19243435 294.29158066 83.64426938 294 96 C293.938125 97.20398438 293.87625 98.40796875 293.8125 99.6484375 C292.26633718 142.01628159 309.82859181 186.97134778 333 222 C333.639375 222.99773437 334.27875 223.99546875 334.9375 225.0234375 C348.47462535 245.82039218 364.32838729 264.89134938 381.234375 283.01171875 C384.33027979 286.33651609 387.31838246 289.75162874 390.28125 293.1953125 C392.06641741 295.06973828 393.83990161 296.57468918 396 298 C396.66 298 397.32 298 398 298 C405.11318621 276.34267017 409.4233493 254.44774914 410.828125 231.68798828 C410.99095204 229.14150287 411.19430814 226.60138657 411.40625 224.05859375 C415.61166809 168.04956394 402.90831545 101.38751037 365.9375 57.5546875 C359.67503713 50.91344664 352.03609667 45.80721933 343 44 C342.02353516 43.80083984 342.02353516 43.80083984 341.02734375 43.59765625 C330.08198853 41.82971321 319.73403559 44.17037818 311 51 Z" fill="white" transform="translate(491,64)"/>
</svg>
  <path d="M0 0 C0 0.66 0 1.32 0 2 C0.54011719 2.2165625 1.08023437 2.433125 1.63671875 2.65625 C19.94576132 13.06668081 29.67433186 36.3929178 35.33886719 55.58984375 C52.2048656 117.07475377 34.92730932 182.55168351 4.24462891 236.83642578 C-2.92254249 249.29532592 -10.68614268 261.27877909 -19 273 C-19.52916016 273.74846191 -20.05832031 274.49692383 -20.60351562 275.26806641 C-27.10229733 284.43776339 -33.69184911 293.45153066 -41 302 C-41.68666748 302.81186768 -41.68666748 302.81186768 -42.38720703 303.64013672 C-56.81892661 320.68893408 -72.04526919 338.62408926 -89.609375 352.53515625 C-91.39875181 354.42003351 -91.93303875 355.38372817 -92 358 C-90.4444811 360.57875916 -90.4444811 360.57875916 -88.125 363.125 C-87.29484375 364.09179688 -86.4646875 365.05859375 -85.609375 366.0546875 C-84.74828125 367.02664063 -83.8871875 367.99859375 -83 369 C-82.22140625 369.88945312 -81.4428125 370.77890625 -80.640625 371.6953125 C-55.95038449 399.53568714 -23.99006402 418.90222631 11 431 C11.76957031 431.27150879 12.53914063 431.54301758 13.33203125 431.82275391 C31.9094036 438.31601078 51.25899148 442.29829577 70.6875 445.25 C71.66912109 445.40098145 72.65074219 445.55196289 73.66210938 445.70751953 C94.54806453 448.68595076 115.43040457 449.37236318 136.5 449.3125 C138.40306412 449.31076279 138.40306412 449.31076279 140.34457397 449.30899048 C159.75684286 449.27401507 178.74765492 448.55845117 198 446 C199.88647345 445.77914457 201.77318173 445.56028258 203.66015625 445.34375 C252.40085965 439.43347412 302.90414806 421.17515523 339 387 C340.36965259 385.80633629 341.74445266 384.61854628 343.125 383.4375 C351.74140092 375.89167394 359.62966682 367.55549977 366 358 C365.68896679 354.61803226 364.40306242 353.07870745 361.9296875 350.85546875 C361.28765381 350.26838135 360.64562012 349.68129395 359.98413086 349.07641602 C359.28811768 348.45307373 358.59210449 347.82973145 357.875 347.1875 C356.4134605 345.84842943 354.95387442 344.50722414 353.49609375 343.1640625 C352.74956543 342.47731445 352.00303711 341.79056641 351.23388672 341.08300781 C343.3498677 333.73148319 335.55479824 326.11460812 328.59375 317.875 C326.65674129 315.59616622 324.64094375 313.39675343 322.625 311.1875 C309.14150279 296.20331002 297.36700562 279.96792055 286.37109375 263.1015625 C285.10889687 261.16691315 283.83703832 259.23902986 282.5625 257.3125 C276.95069353 248.77602825 271.83556106 239.99792754 267 231 C266.66645508 230.37963867 266.33291016 229.75927734 265.98925781 229.12011719 C245.42086148 190.41878638 232.82062904 147.92013998 232.6875 104 C232.68373352 103.31929443 232.67996704 102.63858887 232.67608643 101.93725586 C232.63168943 86.15865771 234.62038607 71.16428067 239 56 C239.20608887 55.27522461 239.41217773 54.55044922 239.62451172 53.80371094 C244.34378079 37.54570544 251.52105459 23.5721783 263 11 C263.75796875 10.14921875 264.5159375 9.2984375 265.296875 8.421875 C281.73838802 -9.09424671 305.68195159 -18.21308868 329.453125 -19.23828125 C359.67687574 -19.93684165 385.04894768 -9.86936871 407 11 C413.8340257 17.73430536 419.78387995 24.93776171 425 33 C425.42361816 33.63196289 425.84723633 34.26392578 426.28369141 34.91503906 C449.67268321 69.81799425 462.36670334 109.75596528 469 151 C469.19754883 152.20930176 469.39509766 153.41860352 469.59863281 154.66455078 C472.50420938 173.20840647 473.3712617 191.54817839 473.375 210.3125 C473.37690338 211.33691193 473.37880676 212.36132385 473.38076782 213.41677856 C473.37208014 254.63402185 466.99293603 297.35798074 449.53125 335.02734375 C448.76976558 337.85491458 448.91957295 339.25479042 450 342 C452.16528851 343.86122672 454.17775918 345.3458665 456.5625 346.875 C457.26576416 347.33986816 457.96902832 347.80473633 458.69360352 348.28369141 C461.11776937 349.87387784 463.55830858 351.43687405 466 353 C466.89299805 353.58136719 467.78599609 354.16273438 468.70605469 354.76171875 C482.81026865 363.93312443 497.24903164 372.09496343 512.28515625 379.63525391 C514.61582838 380.80687776 516.93541984 381.99624617 519.25 383.19921875 C580.02903079 414.6019778 647.70890054 430.57286937 715.76855469 434.26806641 C716.55249603 434.3107515 717.33643738 434.35343658 718.14413452 434.39741516 C719.66279469 434.47746204 721.18170221 434.55297355 722.70083618 434.62345886 C727.89145066 434.89145066 727.89145066 434.89145066 729 436 C729.09905152 437.83572631 729.12799207 439.67527575 729.12939453 441.51367188 C729.13412277 443.28055359 729.13412277 443.28055359 729.13894653 445.08312988 C729.1369223 446.36538452 729.13489807 447.64763916 729.1328125 448.96875 C729.13376923 450.27453003 729.13472595 451.58031006 729.13571167 452.92565918 C729.13718833 455.69312722 729.13503511 458.46056304 729.13037109 461.22802734 C729.12467381 464.78262649 729.12795298 468.33715014 729.13394356 471.89174652 C729.13841747 475.27158714 729.13528886 478.65140723 729.1328125 482.03125 C729.13584885 483.95463196 729.13584885 483.95463196 729.13894653 485.91687012 C729.13579437 487.09479126 729.13264221 488.2727124 729.12939453 489.48632812 C729.12820114 491.05066589 729.12820114 491.05066589 729.12698364 492.64660645 C729 495 729 495 728 496 C657.45360643 499.85742636 576.62507684 480.09903529 513 450 C511.5159668 449.30438965 511.5159668 449.30438965 510.00195312 448.59472656 C502.63359636 445.13257023 495.31048646 441.58244311 488 438 C486.93442871 437.48083008 485.86885742 436.96166016 484.77099609 436.42675781 C462.76347216 425.68764539 462.76347216 425.68764539 452.88720703 419.22412109 C450.49972766 417.67550252 448.09175616 416.16078166 445.68359375 414.64453125 C443.72630584 413.40926075 441.76927636 412.17358068 439.8125 410.9375 C438.89710449 410.3595166 437.98170898 409.7815332 437.03857422 409.18603516 C431.59031049 405.72128148 426.29685437 402.12120864 421.1003418 398.28735352 C418.98428301 396.738712 418.98428301 396.738712 416 397 C413.93751238 398.84362576 413.93751238 398.84362576 411.875 401.3125 C410.66650391 402.69501953 410.66650391 402.69501953 409.43359375 404.10546875 C407.21664298 406.74232352 405.07380602 409.4228394 402.9375 412.125 C393.62236342 423.60986192 382.75019565 434.0436688 371 443 C369.81238918 443.92824365 368.62489715 444.85663929 367.4375 445.78515625 C292.78224389 503.55691161 197.74305486 515.26194834 66.125 508.1875 C2.62350227 499.7550088 -57.42525774 477.48801751 -106 435 C-106.5053125 434.55930176 -107.010625 434.11860352 -107.53125 433.66455078 C-120.4517507 422.32125964 -131.62297814 409.68352782 -142 396 C-145.2847593 397.55457116 -148.28254625 399.40512015 -151.33203125 401.37890625 C-152.36996826 402.04825195 -153.40790527 402.71759766 -154.47729492 403.40722656 C-155.5779126 404.1184668 -156.67853027 404.82970703 -157.8125 405.5625 C-180.02954708 419.8472349 -202.68565865 432.80655806 -226.67529297 443.91992188 C-228.75934418 444.88818931 -230.83625871 445.86959702 -232.91015625 446.859375 C-235.94019778 448.29691375 -238.97769893 449.71090254 -242.02978516 451.10058594 C-243.38866855 451.72092378 -244.74497496 452.34692716 -246.09912109 452.97753906 C-283.08220745 470.10159265 -323.21104935 479.97092083 -363 488 C-364.09602539 488.22316895 -365.19205078 488.44633789 -366.32128906 488.67626953 C-394.85981485 494.35039995 -424.92575586 497.02414167 -454 496 C-455.31538313 493.36923375 -455.12710325 491.41053669 -455.12939453 488.46459961 C-455.13254669 487.30677475 -455.13569885 486.14894989 -455.13894653 484.95603943 C-455.1369223 483.70081985 -455.13489807 482.44560028 -455.1328125 481.15234375 C-455.13376923 479.87017471 -455.13472595 478.58800568 -455.13571167 477.26698303 C-455.13718671 474.55256955 -455.13503994 471.83818896 -455.13037109 469.1237793 C-455.12466822 465.63758959 -455.12795754 462.15147677 -455.13394356 458.66528988 C-455.13841655 455.34846826 -455.13528929 452.03166756 -455.1328125 448.71484375 C-455.13483673 447.45759995 -455.13686096 446.20035614 -455.13894653 444.90501404 C-455.13579437 443.75034134 -455.13264221 442.59566864 -455.12939453 441.40600586 C-455.12859894 440.38389511 -455.12780334 439.36178436 -455.12698364 438.30870056 C-455 436 -455 436 -454 435 C-451.89345458 434.80522126 -449.78090387 434.67508614 -447.66796875 434.5703125 C-446.3128085 434.49861195 -444.957666 434.42657539 -443.60253906 434.35424805 C-442.52413757 434.29882339 -442.52413757 434.29882339 -441.4239502 434.24227905 C-380.95376822 431.0712334 -320.06171359 418.96940522 -265 393 C-263.51886719 392.32710938 -263.51886719 392.32710938 -262.0078125 391.640625 C-230.994636 377.53683324 -201.62716454 360.96963524 -174 341 C-175.69314427 335.78961846 -177.48942156 330.63936463 -179.44775391 325.52294922 C-189.70516884 298.56175976 -195.24952947 270.67193182 -198 242 C-198.09643799 241.00959717 -198.19287598 240.01919434 -198.29223633 238.9987793 C-199.10134055 229.76865092 -199.20243455 220.57085371 -199.1875 211.3125 C-199.18559662 210.0920549 -199.18559662 210.0920549 -199.18365479 208.84695435 C-198.97851116 139.42957417 -182.3933967 63.54093569 -133 12 C-97.70141595 -22.94441766 -40.92801869 -30.28673383 0 0 Z M-95 61 C-104.45087581 72.81958391 -110.89869564 86.24297585 -117 100 C-117.50144531 101.08667969 -118.00289063 102.17335937 -118.51953125 103.29296875 C-132.78032213 135.39106631 -137.24241113 173.08676493 -137.1875 207.875 C-137.18689575 208.59032898 -137.1862915 209.30565796 -137.18566895 210.04266357 C-137.12132159 238.34059135 -135.67764145 271.75209031 -124 298 C-117.55201904 295.27200805 -113.20953625 290.23541239 -108.77734375 285.02734375 C-107.13119489 283.14964868 -105.42264884 281.41872302 -103.625 279.6875 C-99.83493676 275.96526787 -96.5671222 271.87485826 -93.2421875 267.73828125 C-91.28928101 265.3532857 -89.27558218 263.07819913 -87.1875 260.8125 C-54.16715829 223.93433618 -28.78691148 174.97428604 -21 126 C-20.74065674 124.59572754 -20.74065674 124.59572754 -20.47607422 123.16308594 C-17.97631397 106.55442248 -18.96356092 88.00118665 -24 72 C-24.28875 71.03707031 -24.5775 70.07414062 -24.875 69.08203125 C-28.26010508 59.33474206 -34.31119479 50.95867597 -43.48828125 46.08203125 C-62.66794476 37.81956345 -81.9435101 46.0942544 -95 61 Z M311 51 C308.15310372 53.68291796 308.15310372 53.68291796 306 57 C305.52046875 57.63808594 305.0409375 58.27617188 304.546875 58.93359375 C297.50614557 69.19243435 294.29158066 83.64426938 294 96 C293.938125 97.20398438 293.87625 98.40796875 293.8125 99.6484375 C292.26633718 142.01628159 309.82859181 186.97134778 333 222 C333.639375 222.99773437 334.27875 223.99546875 334.9375 225.0234375 C348.47462535 245.82039218 364.32838729 264.89134938 381.234375 283.01171875 C384.33027979 286.33651609 387.31838246 289.75162874 390.28125 293.1953125 C392.06641741 295.06973828 393.83990161 296.57468918 396 298 C396.66 298 397.32 298 398 298 C405.11318621 276.34267017 409.4233493 254.44774914 410.828125 231.68798828 C410.99095204 229.14150287 411.19430814 226.60138657 411.40625 224.05859375 C415.61166809 168.04956394 402.90831545 101.38751037 365.9375 57.5546875 C359.67503713 50.91344664 352.03609667 45.80721933 343 44 C342.02353516 43.80083984 342.02353516 43.80083984 341.02734375 43.59765625 C330.08198853 41.82971321 319.73403559 44.17037818 311 51 Z " fill="#4f46e5" transform="translate(491,64)"/>
</svg>
